<svg xmlns="http://www.w3.org/2000/svg" viewBox="0 0 500 200">
  <!-- Blue oval background -->
  <ellipse cx="250" cy="100" rx="245" ry="97" fill="#003478"/>
  
  <!-- White Ford script -->
  <g fill="white">
    <!-- F -->
    <path d="M 80 60 L 80 140 L 85 140 L 85 105 L 125 105 L 125 100 L 85 100 L 85 65 L 135 65 L 135 60 Z"/>
    
    <!-- o -->
    <ellipse cx="165" cy="100" rx="22" ry="42" fill="none" stroke="white" stroke-width="5"/>
    
    <!-- r -->
    <path d="M 205 140 L 205 80 L 210 80 L 210 85 Q 215 78 230 78 L 230 83 Q 215 83 210 95 L 210 140 Z"/>
    
    <!-- d -->
    <path d="M 250 60 L 250 140 L 255 140 L 255 135 Q 260 142 275 142 Q 295 142 295 100 Q 295 58 275 58 Q 260 58 255 65 L 255 60 Z M 275 63 Q 290 63 290 100 Q 290 137 275 137 Q 260 137 255 125 L 255 75 Q 260 63 275 63 Z"/>
  </g>
  
  <!-- Signature curl at bottom -->
  <path d="M 80 145 Q 120 150 160 145 Q 200 140 240 145 Q 280 150 320 145" 
        stroke="white" stroke-width="2" fill="none" opacity="0.6"/>
</svg>
